inDegrees=yes
name=ik_S47_A02_T02
DataType=double
version=3
OpenSimVersion=4.3-2021-08-27-4bc7ad9
endheader
time	pelvis_tilt	pelvis_list	pelvis_rotation	pelvis_tx	pelvis_ty	pelvis_tz	hip_flexion_r	hip_adduction_r	hip_rotation_r	knee_angle_r	knee_angle_r_beta	ankle_angle_r	subtalar_angle_r	mtp_angle_r	hip_flexion_l	hip_adduction_l	hip_rotation_l	knee_angle_l	knee_angle_l_beta	ankle_angle_l	subtalar_angle_l	mtp_angle_l	lumbar_extension	lumbar_bending	lumbar_rotation	arm_flex_r	arm_add_r	arm_rot_r	elbow_flex_r	pro_sup_r	wrist_flex_r	wrist_dev_r	arm_flex_l	arm_add_l	arm_rot_l	elbow_flex_l	pro_sup_l	wrist_flex_l	wrist_dev_l
0	0	0	0	0	0.9399999999999999	0	0	0	0	0	0	0	0	0	0	0	0	0	0	0	0	0	0	0	0	0	0	0	0	89.99999999963507	0	0	0	0	0	0	89.99999999869995	0	0
0.02	0.6620321016824025	0.8621032039892451	90.94713563890629	0	0.9399999999999999	0	-0.1129885323153875	-4.457823044352786	-11.28870027646049	2.852046753443361	0.04977760626840157	0	0	0	-0.7222739126656277	-3.333964521434628	-3.562375652604531	-1.34959075824827	-0.02355480228591912	0	0	0	0	0	0	1.981655942679809	-1.981655942679809	0.3529268413382884	9.809221494868503	89.64707317903418	0	0	1.981655942679809	-1.981655942679809	0.3529268413382884	9.809221494868503	89.64707317816521	0	0
0.04	0.684663737756143	0.8705523519838827	90.85696795744499	0	0.9399999999999999	0	-0.1866904796035614	-4.374818463848549	-11.20305468166598	2.640356945016766	0.04608292211844146	0	0	0	-0.794714559956631	-3.383885242417721	-3.451501948302703	-1.532790815712618	-0.02675224647851481	0	0	0	0	0	0	1.99174225555575	-1.99174225555575	0.3549056130856176	9.894053653076623	89.64509440740528	0	0	1.99174225555575	-1.99174225555575	0.3549056130856176	9.894053653076623	89.64509440653667	0	0
0.06	0.6786425114322426	0.8401010097188082	90.73910305765204	0	0.9399999999999999	0	-0.2109041257303334	-4.348929510794515	-11.11692883940163	2.629688937283388	0.0458967302588658	0	0	0	-0.7973073691828449	-3.389454342911599	-3.326466003796362	-1.545060743448625	-0.02696639711648991	0	0	0	0	0	0	1.992440744165703	-1.992440744165703	0.3550406795297364	9.899510438104242	89.64495934096924	0	0	1.992440744165703	-1.992440744165703	0.3550406795297364	9.899510438104242	89.64495934010064	0	0
0.08	0.7277313253016856	0.8324121263396514	90.7183656120024	0	0.9399999999999999	0	-0.3040020150328169	-4.246841512994256	-11.18519405848	2.389707464784464	0.04170826341997534	0	0	0	-0.8622036166684883	-3.45720348192052	-3.067700175437724	-1.716418244855731	-0.02995714971403472	0	0	0	0	0	0	1.998227216580652	-1.998227216580652	0.3561756170341566	9.947927478229213	89.6438244035327	0	0	1.998227216580652	-1.998227216580652	0.3561756170341566	9.947927478229213	89.64382440266438	0	0
0.1	0.7221192172008377	0.7922778809615618	90.60831224884485	0	0.9399999999999999	0	-0.3349620111367519	-4.204797198691335	-11.08476883988598	2.164456286937719	0.03777688872255433	0	0	0	-0.8916863883312026	-3.456812226079983	-2.915207582380279	-1.872044896795078	-0.03267334719423156	0	0	0	0	0	0	2.008024153875005	-2.008024153875005	0.358097343597461	10.02975285785939	89.64190267708437	0	0	2.008024153875005	-2.008024153875005	0.358097343597461	10.02975285785939	89.64190267621649	0	0
0.12	0.7146653796146568	0.7559609730869088	90.5599688395059	0	0.9399999999999999	0	-0.3436268942300255	-4.171780342859003	-11.02175491180177	2.145482356204472	0.03744573115921383	0	0	0	-0.8812891487954115	-3.474671094039897	-2.789654894554781	-1.891019951230174	-0.03300452436986913	0	0	0	0	0	0	2.009278311296388	-2.009278311296388	0.3583412930946274	10.03978715961285	89.64165872760178	0	0	2.009278311296388	-2.009278311296388	0.3583412930946274	10.03978715961285	89.64165872673397	0	0
0.14	0.71410674356827	0.7184639014388183	90.50136172194887	0	0.9399999999999999	0	-0.352424280443913	-4.146849522187297	-10.98844227173925	2.135068864152431	0.03726398143627545	0	0	0	-0.8784539247451904	-3.489980901763573	-2.728527561067884	-1.909596254926039	-0.03332874203221237	0	0	0	0	0	0	2.009919355475779	-2.009919355475779	0.3584649834866598	10.04471360612547	89.64153503721712	0	0	2.009919355475779	-2.009919355475779	0.3584649834866598	10.04471360612547	89.64153503634934	0	0
